/vscmnt/brussel_pixiu_data/_data_brussel/112/vsc11236/PredSimResults/SUBJ07mtu3D/worker4.mot
version=1
nRows=6
nColumns=50
inDegrees=yes
endheader
                time	         pelvis_tilt	         pelvis_list	     pelvis_rotation	           pelvis_tx	           pelvis_ty	           pelvis_tz	       hip_flexion_r	     hip_adduction_r	      hip_rotation_r	        knee_angle_r	       ankle_angle_r	         mtp_angle_r	       hip_flexion_l	     hip_adduction_l	      hip_rotation_l	        knee_angle_l	       ankle_angle_l	         mtp_angle_l	    lumbar_extension	      lumbar_bending	     lumbar_rotation	 ercspn_r/activation	 intobl_r/activation	 extobl_r/activation	    abd_r/activation	    add_r/activation	hamstrings_r/activation	bifemsh_r/activation	glut_max_r/activation	iliopsoas_r/activation	rect_fem_r/activation	  vasti_r/activation	gastroc_r/activation	 soleus_r/activation	tib_ant_r/activation	 ercspn_l/activation	 intobl_l/activation	 extobl_l/activation	    abd_l/activation	    add_l/activation	hamstrings_l/activation	bifemsh_l/activation	glut_max_l/activation	iliopsoas_l/activation	rect_fem_l/activation	  vasti_l/activation	gastroc_l/activation	 soleus_l/activation	tib_ant_l/activation	
          1.08740439	         -4.65721720	          0.46212199	          7.31053625	          1.32663335	          0.84985874	         -0.01188939	         30.36689571	         -2.15741840	         -3.07874702	         -6.28185702	          4.34329545	          0.26771174	        -13.56942271	          1.34369638	          3.86182136	         -8.51167044	          8.76068658	         25.95881618	         -8.89288127	         -2.36439789	         -1.72709198	          0.11635632	          0.15002480	          0.01000000	          0.02440129	          0.12068942	          0.05199740	          0.10365700	          0.07258775	          0.01974631	          0.01181233	          0.00999999	          0.00999999	          0.00999999	          0.35460643	          0.11850892	          0.00999999	          0.00999999	          0.03790419	          0.00999999	          0.01264505	          0.14180515	          0.01461310	          0.14675971	          0.01181232	          0.00999999	          0.12538212	          0.27744257	          0.01946899	
          1.09827843	         -4.66062622	          0.50055727	          7.31658399	          1.34210318	          0.84839082	         -0.01181016	         30.06743682	         -1.95926772	         -2.69025789	         -7.59661014	          4.08297838	          0.25179491	        -13.99139701	          1.30562027	          3.53594042	         -9.62761255	          7.92425841	         27.56493364	         -8.77162923	         -1.94744861	         -1.95674182	          0.09850404	          0.12700684	          0.00999999	          0.02318645	          0.10217232	          0.05404575	          0.11865812	          0.12273744	          0.01671668	          0.00999999	          0.00999999	          0.01802057	          0.01344080	          0.38043012	          0.13653331	          0.00999999	          0.01000000	          0.03208864	          0.01694287	          0.01295807	          0.12004831	          0.01237105	          0.12424270	          0.01000000	          0.00999999	          0.10614502	          0.25896589	          0.01648191	
          1.10915247	         -4.66101384	          0.53011078	          7.27608039	          1.35769069	          0.84713164	         -0.01165408	         29.70750219	         -1.80676784	         -2.33237504	         -8.83258949	          3.72141792	          0.24772465	        -14.27119810	          1.26931534	          3.17340230	        -11.00355063	          6.97471481	         29.12880973	         -8.64313439	         -1.51728240	         -2.17613580	          0.13123971	          0.10752047	          0.00999999	          0.10475996	          0.11471029	          0.05074611	          0.10045329	          0.12875160	          0.01415188	          0.00999999	          0.00999999	          0.01525572	          0.01137861	          0.42385763	          0.14750071	          0.00999999	          0.00999999	          0.02716535	          0.01434336	          0.01096998	          0.10162957	          0.01047299	          0.10518043	          0.01000001	          0.00999999	          0.08985943	          0.23064003	          0.01395312	
          1.12002652	         -4.65998058	          0.57175998	          7.19329654	          1.37321235	          0.84625358	         -0.01140379	         29.36141631	         -1.66794982	         -2.04768661	        -10.06329695	          3.32572982	          0.22796345	        -14.32734406	          1.25712618	          2.78433916	        -12.75440301	          5.88389056	         30.59872136	         -8.52825000	         -1.10000788	         -2.38442148	          0.13678564	          0.09102385	          0.00999999	          0.14950015	          0.13988371	          0.04503541	          0.08504097	          0.15163087	          0.01198059	          0.00999999	          0.00999999	          0.01291507	          0.00999999	          0.44328352	          0.18533031	          0.00999999	          0.00999999	          0.02299743	          0.01560193	          0.01410948	          0.08603678	          0.00999999	          0.08904283	          0.01000000	          0.01000000	          0.07607250	          0.19525345	          0.01181233	
          1.13090056	         -4.65750838	          0.61819307	          7.07537764	          1.38854504	          0.84587730	         -0.01106091	         29.07918986	         -1.52794580	         -1.80875062	        -11.42016730	          3.13408821	          0.21129916	        -14.08978808	          1.26027391	          2.37072770	        -14.98229976	          4.66494921	         31.84682215	         -8.43427905	         -0.69100407	         -2.58268325	          0.14739102	          0.07705826	          0.00999999	          0.18460875	          0.16141120	          0.04372309	          0.07199333	          0.17135572	          0.01014244	          0.00999999	          0.02396715	          0.01093354	          0.01000000	          0.44768478	          0.21474208	          0.00999999	          0.00999999	          0.01946899	          0.03605990	          0.01311847	          0.07283635	          0.00999999	          0.07538120	          0.01000000	          0.00999999	          0.06440087	          0.16529616	          0.00999999	
          1.14177460	         -4.65440933	          0.67048225	          6.92445768	          1.40361302	          0.84609552	         -0.01063987	         28.83377537	         -1.38984495	         -1.61262797	        -12.83186344	          3.10550187	          0.19505791	        -13.49770824	          1.27951653	          1.92209302	        -17.77395757	          3.32889452	         32.68438072	         -8.36254367	         -0.29374768	         -2.76870954	          0.14988263	          0.06523539	          0.00999999	          0.20440813	          0.17933059	          0.04374290	          0.06094756	          0.17696622	          0.00999999	          0.00999999	          0.05408093	          0.01000000	          0.00999999	          0.43875689	          0.23604047	          0.00999999	          0.00999999	          0.01648191	          0.06167298	          0.01110589	          0.06166124	          0.00999999	          0.06381563	          0.01000000	          0.00999999	          0.05451999	          0.13993514	          0.00999999	
